<svg width="46" height="27" viewBox="0 0 46 27" fill="none" xmlns="http://www.w3.org/2000/svg">
<path fill-rule="evenodd" clip-rule="evenodd" d="M25.9265 6.075H5.93C5.4818 6.075 5.06807 6.24375 4.75778 6.5475C4.44749 6.85125 4.2751 7.2225 4.2751 7.66125V15.9975C4.2751 16.4363 4.44749 16.8413 4.75778 17.1113C5.06807 17.415 5.4818 17.5838 5.93 17.5838H25.9265C26.3747 17.5838 26.7884 17.415 27.0987 17.1113C27.409 16.8075 27.5814 16.4363 27.5814 15.9975V7.66125C27.5814 7.2225 27.409 6.8175 27.0987 6.5475C26.7884 6.24375 26.3747 6.075 25.9265 6.075ZM5.89551 5.4H25.892C26.5471 5.4 27.1332 5.67 27.5469 6.075C27.9606 6.48 28.2364 7.05375 28.2364 7.66125V15.9975C28.2364 16.605 27.9606 17.1788 27.5469 17.5838C27.1332 17.9888 26.5471 18.2588 25.892 18.2588H5.89551C5.24045 18.2588 4.65435 18.0225 4.24063 17.5838C3.82691 17.1788 3.5511 16.605 3.5511 15.9975V7.66125C3.5511 7.05375 3.82691 6.48 4.24063 6.075C4.68883 5.67 5.27493 5.4 5.89551 5.4ZM7.06773 7.425C7.86069 7.425 8.48126 8.0325 8.48126 8.775V12.15C8.48126 12.8925 7.86069 13.5 7.06773 13.5C6.27476 13.5 5.65417 12.8925 5.65417 12.15V8.775C5.65417 8.0325 6.30924 7.425 7.06773 7.425ZM10.5844 7.425C11.3773 7.425 11.9979 8.0325 11.9979 8.775V12.15C11.9979 12.8925 11.3773 13.5 10.5844 13.5C9.79139 13.5 9.1708 12.8925 9.1708 12.15V8.775C9.20527 8.0325 9.82587 7.425 10.5844 7.425ZM14.1355 7.425C14.9284 7.425 15.549 8.0325 15.549 8.775V12.15C15.549 12.8925 14.9284 13.5 14.1355 13.5C13.3425 13.5 12.7219 12.8925 12.7219 12.15V8.775C12.7219 8.0325 13.377 7.425 14.1355 7.425ZM17.6865 7.425C18.4795 7.425 19.1001 8.0325 19.1001 8.775V12.15C19.1001 12.8925 18.4795 13.5 17.6865 13.5C16.8936 13.5 16.273 12.8925 16.273 12.15V8.775C16.273 8.0325 16.8936 7.425 17.6865 7.425ZM21.2032 7.425C21.9961 7.425 22.6167 8.0325 22.6167 8.775V12.15C22.6167 12.8925 21.9961 13.5 21.2032 13.5C20.4102 13.5 19.7896 12.8925 19.7896 12.15V8.775C19.7896 8.0325 20.4447 7.425 21.2032 7.425ZM24.7198 7.425C25.5128 7.425 26.1333 8.0325 26.1333 8.775V12.15C26.1333 12.8925 25.5128 13.5 24.7198 13.5C23.9268 13.5 23.3062 12.8925 23.3062 12.15V8.775C23.3062 8.0325 23.9613 7.425 24.7198 7.425ZM41.8202 3.375H4.10272C3.34423 3.375 2.68917 3.67875 2.2065 4.15125C1.72382 4.62375 1.41354 5.265 1.41354 5.97375V23.1187C1.41354 23.8275 1.72382 24.4688 2.2065 24.9412C2.68917 25.4137 3.3787 25.7175 4.10272 25.7175H41.8547C42.5787 25.7175 43.2683 25.4137 43.7509 24.9412C44.2336 24.4688 44.5439 23.8275 44.5439 23.1187V5.97375C44.5439 5.265 44.2336 4.62375 43.7509 4.15125C43.2338 3.67875 42.5787 3.375 41.8202 3.375ZM5.27493 1.35H7.06773V1.0125C7.06773 0.4725 7.55039 0 8.13649 0H10.9636C11.5497 0 12.0324 0.43875 12.0324 1.0125V1.35H33.1321V1.0125C33.1321 0.4725 33.6148 0 34.2009 0H37.028C37.6141 0 38.0967 0.43875 38.0967 1.0125V1.35H39.9585C40.4067 1.35 40.8204 1.65375 40.9583 2.025H41.8547C42.9924 2.025 43.9923 2.46375 44.7508 3.1725C45.5092 3.88125 45.9574 4.86 45.9574 5.94V23.085C45.9574 24.165 45.5092 25.1438 44.7508 25.8525C43.9923 26.5613 42.9924 27 41.8547 27H4.10272C2.96498 27 1.9307 26.5613 1.20668 25.8525C0.448197 25.1438 0 24.165 0 23.085V5.94C0 4.86 0.448197 3.88125 1.20668 3.1725C1.96517 2.46375 2.96498 2.025 4.10272 2.025H4.2751C4.41301 1.65375 4.82673 1.35 5.27493 1.35Z" fill="#F68F57"/>
<path d="M32.3404 18.0113L36.6109 11.6308L35.7245 16.3864L39.1489 16.4657L34.2339 22.8462L35.8454 18.0113H32.3404Z" fill="#F68F57"/>
</svg>
