<svg width="45" height="27" viewBox="0 0 45 27" fill="none" xmlns="http://www.w3.org/2000/svg">
<path fill-rule="evenodd" clip-rule="evenodd" d="M24.8683 6.075H5.68796C5.25805 6.075 4.86121 6.24375 4.56359 6.5475C4.26596 6.85125 4.10061 7.2225 4.10061 7.66125V15.9975C4.10061 16.4363 4.26596 16.8413 4.56359 17.1113C4.86121 17.415 5.25805 17.5838 5.68796 17.5838H24.8683C25.2982 17.5838 25.695 17.415 25.9926 17.1113C26.2902 16.8075 26.4556 16.4363 26.4556 15.9975V7.66125C26.4556 7.2225 26.2902 6.8175 25.9926 6.5475C25.695 6.24375 25.2982 6.075 24.8683 6.075ZM5.65488 5.4H24.8352C25.4635 5.4 26.0257 5.67 26.4225 6.075C26.8193 6.48 27.0839 7.05375 27.0839 7.66125V15.9975C27.0839 16.605 26.8193 17.1788 26.4225 17.5838C26.0257 17.9888 25.4635 18.2588 24.8352 18.2588H5.65488C5.02656 18.2588 4.46438 18.0225 4.06754 17.5838C3.67071 17.1788 3.40615 16.605 3.40615 15.9975V7.66125C3.40615 7.05375 3.67071 6.48 4.06754 6.075C4.49745 5.67 5.05962 5.4 5.65488 5.4ZM6.77925 7.425C7.53984 7.425 8.13509 8.0325 8.13509 8.775V12.15C8.13509 12.8925 7.53984 13.5 6.77925 13.5C6.01865 13.5 5.42338 12.8925 5.42338 12.15V8.775C5.42338 8.0325 6.05172 7.425 6.77925 7.425ZM10.1523 7.425C10.9129 7.425 11.5082 8.0325 11.5082 8.775V12.15C11.5082 12.8925 10.9129 13.5 10.1523 13.5C9.39174 13.5 8.79648 12.8925 8.79648 12.15V8.775C8.82955 8.0325 9.42481 7.425 10.1523 7.425ZM13.5585 7.425C14.3191 7.425 14.9143 8.0325 14.9143 8.775V12.15C14.9143 12.8925 14.3191 13.5 13.5585 13.5C12.7979 13.5 12.2026 12.8925 12.2026 12.15V8.775C12.2026 8.0325 12.831 7.425 13.5585 7.425ZM16.9646 7.425C17.7252 7.425 18.3205 8.0325 18.3205 8.775V12.15C18.3205 12.8925 17.7252 13.5 16.9646 13.5C16.2041 13.5 15.6088 12.8925 15.6088 12.15V8.775C15.6088 8.0325 16.2041 7.425 16.9646 7.425ZM20.3377 7.425C21.0983 7.425 21.6936 8.0325 21.6936 8.775V12.15C21.6936 12.8925 21.0983 13.5 20.3377 13.5C19.5771 13.5 18.9819 12.8925 18.9819 12.15V8.775C18.9819 8.0325 19.6102 7.425 20.3377 7.425ZM23.7108 7.425C24.4714 7.425 25.0667 8.0325 25.0667 8.775V12.15C25.0667 12.8925 24.4714 13.5 23.7108 13.5C22.9502 13.5 22.355 12.8925 22.355 12.15V8.775C22.355 8.0325 22.9833 7.425 23.7108 7.425ZM40.1133 3.375H3.93526C3.20773 3.375 2.57941 3.67875 2.11644 4.15125C1.65346 4.62375 1.35584 5.265 1.35584 5.97375V23.1187C1.35584 23.8275 1.65346 24.4688 2.11644 24.9412C2.57941 25.4137 3.2408 25.7175 3.93526 25.7175H40.1464C40.8408 25.7175 41.5022 25.4137 41.9652 24.9412C42.4282 24.4688 42.7258 23.8275 42.7258 23.1187V5.97375C42.7258 5.265 42.4282 4.62375 41.9652 4.15125C41.4691 3.67875 40.8408 3.375 40.1133 3.375ZM5.05963 1.35H6.77925V1.0125C6.77925 0.4725 7.24221 0 7.80439 0H10.5161C11.0783 0 11.5412 0.43875 11.5412 1.0125V1.35H31.7798V1.0125C31.7798 0.4725 32.2428 0 32.8049 0H35.5166C36.0788 0 36.5418 0.43875 36.5418 1.0125V1.35H38.3275C38.7574 1.35 39.1543 1.65375 39.2866 2.025H40.1464C41.2376 2.025 42.1967 2.46375 42.9242 3.1725C43.6517 3.88125 44.0816 4.86 44.0816 5.94V23.085C44.0816 24.165 43.6517 25.1438 42.9242 25.8525C42.1967 26.5613 41.2376 27 40.1464 27H3.93526C2.84396 27 1.85189 26.5613 1.15743 25.8525C0.429903 25.1438 0 24.165 0 23.085V5.94C0 4.86 0.429903 3.88125 1.15743 3.1725C1.88496 2.46375 2.84396 2.025 3.93526 2.025H4.10061C4.23288 1.65375 4.62972 1.35 5.05963 1.35Z" fill="#2A7BE4"/>
<path d="M34.4898 22.8462C32.5816 22.8462 31.0204 21.2416 31.0204 19.2667C31.0204 17.2919 34.4898 12.0462 34.4898 12.0462C34.4898 12.0462 37.9592 17.2919 37.9592 19.2667C37.9592 21.2416 36.398 22.8462 34.4898 22.8462Z" fill="#2A7BE4"/>
</svg>
