<svg width="45" height="27" viewBox="0 0 45 27" fill="none" xmlns="http://www.w3.org/2000/svg">
<path fill-rule="evenodd" clip-rule="evenodd" d="M25.3864 6.075H5.80646C5.3676 6.075 4.96249 6.24375 4.65866 6.5475C4.35484 6.85125 4.18603 7.2225 4.18603 7.66125V15.9975C4.18603 16.4363 4.35484 16.8413 4.65866 17.1113C4.96249 17.415 5.3676 17.5838 5.80646 17.5838H25.3864C25.8252 17.5838 26.2303 17.415 26.5341 17.1113C26.838 16.8075 27.0068 16.4363 27.0068 15.9975V7.66125C27.0068 7.2225 26.838 6.8175 26.5341 6.5475C26.2303 6.24375 25.8252 6.075 25.3864 6.075ZM5.77269 5.4H25.3526C25.994 5.4 26.5679 5.67 26.973 6.075C27.3781 6.48 27.6482 7.05375 27.6482 7.66125V15.9975C27.6482 16.605 27.3781 17.1788 26.973 17.5838C26.5679 17.9888 25.994 18.2588 25.3526 18.2588H5.77269C5.13128 18.2588 4.55739 18.0225 4.15228 17.5838C3.74718 17.1788 3.47712 16.605 3.47712 15.9975V7.66125C3.47712 7.05375 3.74718 6.48 4.15228 6.075C4.59114 5.67 5.16503 5.4 5.77269 5.4ZM6.92048 7.425C7.69693 7.425 8.30457 8.0325 8.30457 8.775V12.15C8.30457 12.8925 7.69693 13.5 6.92048 13.5C6.14404 13.5 5.53637 12.8925 5.53637 12.15V8.775C5.53637 8.0325 6.17779 7.425 6.92048 7.425ZM10.3638 7.425C11.1403 7.425 11.7479 8.0325 11.7479 8.775V12.15C11.7479 12.8925 11.1403 13.5 10.3638 13.5C9.5874 13.5 8.97974 12.8925 8.97974 12.15V8.775C9.0135 8.0325 9.62116 7.425 10.3638 7.425ZM13.841 7.425C14.6174 7.425 15.225 8.0325 15.225 8.775V12.15C15.225 12.8925 14.6174 13.5 13.841 13.5C13.0645 13.5 12.4569 12.8925 12.4569 12.15V8.775C12.4569 8.0325 13.0983 7.425 13.841 7.425ZM17.3181 7.425C18.0945 7.425 18.7022 8.0325 18.7022 8.775V12.15C18.7022 12.8925 18.0945 13.5 17.3181 13.5C16.5416 13.5 15.934 12.8925 15.934 12.15V8.775C15.934 8.0325 16.5416 7.425 17.3181 7.425ZM20.7614 7.425C21.5379 7.425 22.1455 8.0325 22.1455 8.775V12.15C22.1455 12.8925 21.5379 13.5 20.7614 13.5C19.985 13.5 19.3773 12.8925 19.3773 12.15V8.775C19.3773 8.0325 20.0188 7.425 20.7614 7.425ZM24.2048 7.425C24.9813 7.425 25.5889 8.0325 25.5889 8.775V12.15C25.5889 12.8925 24.9813 13.5 24.2048 13.5C23.4284 13.5 22.8207 12.8925 22.8207 12.15V8.775C22.8207 8.0325 23.4621 7.425 24.2048 7.425ZM34.1298 11.745C34.2648 15.93 31.7329 15.8288 31.3953 18.7313C31.024 21.8363 33.6909 22.7475 33.6909 22.7475C31.6992 20.0475 33.8935 18.36 33.7247 17.9888C33.7247 17.9888 34.4674 18.6638 34.231 19.305C34.0285 19.9463 35.4126 18.5287 35.4463 17.01C35.4801 15.4912 35.4463 16.4025 35.4463 16.4025C35.4463 16.4025 37.168 17.3475 37.2018 19.5075C37.2693 21.6675 35.7839 22.6125 35.7839 22.6125C35.7839 22.6125 38.012 22.4775 38.5521 19.7775C39.2273 16.5038 36.6279 13.6013 34.1298 11.745ZM40.949 3.375H4.01724C3.27456 3.375 2.63315 3.67875 2.16053 4.15125C1.68791 4.62375 1.38409 5.265 1.38409 5.97375V23.1187C1.38409 23.8275 1.68791 24.4687 2.16053 24.9412C2.63315 25.4137 3.30832 25.7175 4.01724 25.7175H40.9827C41.6917 25.7175 42.3668 25.4137 42.8395 24.9412C43.3121 24.4687 43.6159 23.8275 43.6159 23.1187V5.97375C43.6159 5.265 43.3121 4.62375 42.8395 4.15125C42.3331 3.67875 41.6917 3.375 40.949 3.375ZM5.16504 1.35H6.92048V1.0125C6.92048 0.4725 7.39309 0 7.96698 0H10.7352C11.3091 0 11.7817 0.43875 11.7817 1.0125V1.35H32.4419V1.0125C32.4419 0.4725 32.9145 0 33.4884 0H36.2566C36.8304 0 37.3031 0.43875 37.3031 1.0125V1.35H39.126C39.5649 1.35 39.97 1.65375 40.105 2.025H40.9827C42.0968 2.025 43.0758 2.46375 43.8185 3.1725C44.5611 3.88125 45 4.86 45 5.94V23.085C45 24.165 44.5611 25.1438 43.8185 25.8525C43.0758 26.5613 42.0968 27 40.9827 27H4.01724C2.90321 27 1.89047 26.5613 1.18155 25.8525C0.43886 25.1438 0 24.165 0 23.085V5.94C0 4.86 0.43886 3.88125 1.18155 3.1725C1.92423 2.46375 2.90321 2.025 4.01724 2.025H4.18603C4.32107 1.65375 4.72618 1.35 5.16504 1.35Z" fill="#E63756"/>
</svg>
